# xmcd CD database file
#
# Track frame offsets:
#	150
#	19800
#	60917
#	80886
#	96848
#	127076
#	158126
#	204758
#	229455
#	255702
#
# Disc length: 3673 seconds
#
# Revision: 0
# Processed by: cddbd v1.5.2PL0 Copyright (c) Steve Scherf et al.
# Submitted via: CDex 1.51
#
DISCID=820e570a
DTITLE=Tomek Sowinski and The Collective Improvisation Group - Synergy
DYEAR=2008
DGENRE=Jazz
TTITLE0=Initiation to synergy
TTITLE1=Very wicked customs
TTITLE2=Staggering
TTITLE3=Sleeping, smoking, talking
TTITLE4=Lemon incident
TTITLE5=Chix
TTITLE6=Clumsiest people
TTITLE7=Have we lost our dream
TTITLE8=CV joint
TTITLE9=Idle
EXTD=YEAR: 2008
EXTT0=
EXTT1=
EXTT2=
EXTT3=
EXTT4=
EXTT5=
EXTT6=
EXTT7=
EXTT8=
EXTT9=
PLAYORDER=
